<?xml version="1.0" standalone="no"?>
<!DOCTYPE svg PUBLIC "-//W3C//DTD SVG 20010904//EN"
 "http://www.w3.org/TR/2001/REC-SVG-20010904/DTD/svg10.dtd">
<svg version="1.0" xmlns="http://www.w3.org/2000/svg"
 width="352.000000pt" height="58.000000pt" viewBox="0 0 352.000000 58.000000"
 preserveAspectRatio="xMidYMid meet">

<g transform="translate(0.000000,58.000000) scale(0.100000,-0.100000)"
fill="#000000" stroke="none">
<path d="M345 443 c-11 -3 -25 -12 -32 -20 -11 -14 -21 -14 -87 -3 -87 15
-109 10 -104 -24 1 -13 -3 -30 -9 -37 -7 -8 -16 -27 -22 -42 l-11 -27 244 0
c217 0 245 2 250 16 4 9 5 18 4 19 -11 10 -85 35 -104 35 -14 0 -24 6 -24 15
0 8 -9 19 -20 25 -11 6 -20 20 -20 30 0 20 -19 24 -65 13z"/>
<path d="M1260 390 c0 -5 5 -10 11 -10 5 0 7 5 4 10 -3 6 -8 10 -11 10 -2 0
-4 -4 -4 -10z"/>
<path d="M1500 390 c0 -5 5 -10 11 -10 5 0 7 5 4 10 -3 6 -8 10 -11 10 -2 0
-4 -4 -4 -10z"/>
<path d="M2530 390 c0 -5 5 -10 11 -10 5 0 7 5 4 10 -3 6 -8 10 -11 10 -2 0
-4 -4 -4 -10z"/>
<path d="M2565 390 c-3 -5 -1 -10 4 -10 6 0 11 5 11 10 0 6 -2 10 -4 10 -3 0
-8 -4 -11 -10z"/>
<path d="M670 330 l0 -60 34 0 c63 0 75 61 12 68 -40 5 -35 40 7 45 28 3 26 4
-10 5 l-43 2 0 -60z m68 -12 c15 -15 -3 -38 -29 -38 -14 0 -19 7 -19 25 0 27
26 35 48 13z"/>
<path d="M1316 379 c6 -11 31 -12 37 -1 3 4 -6 8 -19 8 -13 1 -21 -2 -18 -7z"/>
<path d="M1620 380 c0 -5 -9 -19 -20 -30 -11 -11 -20 -27 -20 -35 0 -8 9 -24
20 -35 11 -11 20 -24 20 -30 0 -5 5 -10 10 -10 6 0 10 6 10 13 0 7 9 18 20 25
11 7 20 23 20 37 0 14 -9 30 -20 37 -11 7 -20 18 -20 25 0 7 -4 13 -10 13 -5
0 -10 -4 -10 -10z m0 -66 c0 -21 -4 -33 -10 -29 -17 10 -11 65 7 65 2 0 3 -16
3 -36z m39 -15 c-14 -28 -19 -23 -19 19 1 34 2 36 15 18 10 -13 11 -24 4 -37z"/>
<path d="M2150 385 c0 -3 10 -24 21 -47 20 -40 21 -42 3 -55 -16 -11 -16 -13
-2 -13 20 0 21 2 47 68 11 29 17 52 12 52 -4 0 -15 -17 -23 -37 l-14 -38 -14
38 c-8 20 -18 37 -22 37 -4 0 -8 -2 -8 -5z"/>
<path d="M790 327 c0 -18 -5 -38 -12 -45 -7 -7 -8 -12 -2 -12 18 0 34 24 34
52 0 18 5 28 15 28 11 0 15 -11 15 -40 0 -22 5 -40 10 -40 6 0 10 20 10 45 0
45 0 45 -35 45 -33 0 -35 -2 -35 -33z"/>
<path d="M885 350 c-4 -7 1 -9 18 -5 37 10 42 -11 6 -24 -42 -15 -36 -46 9
-47 33 -1 33 0 30 40 -3 36 -6 41 -30 44 -14 2 -29 -2 -33 -8z m49 -55 c-7
-16 -30 -20 -38 -6 -7 11 4 21 25 21 12 0 16 -5 13 -15z"/>
<path d="M982 313 l1 -48 4 42 c3 33 8 43 26 46 18 4 17 5 -5 6 -27 1 -28 -1
-26 -46z"/>
<path d="M1061 346 c-16 -20 -10 -56 12 -70 27 -17 52 4 52 45 0 29 -4 34 -26
37 -14 2 -31 -4 -38 -12z m54 -17 c5 -14 1 -27 -10 -38 -15 -15 -17 -15 -30 3
-10 13 -11 24 -4 37 13 25 36 24 44 -2z"/>
<path d="M1160 305 c-7 -30 -10 -58 -7 -62 4 -3 7 1 7 10 0 13 9 17 34 17 19
0 37 -6 39 -12 2 -7 3 0 1 16 -2 16 -4 41 -4 57 0 25 -4 29 -28 29 -27 0 -30
-4 -42 -55z m50 10 c0 -29 -4 -35 -21 -35 -15 0 -19 4 -15 16 3 9 6 24 6 35 0
10 7 19 15 19 10 0 15 -11 15 -35z"/>
<path d="M1260 315 c0 -27 3 -45 7 -41 7 7 5 77 -3 85 -2 2 -4 -17 -4 -44z"/>
<path d="M1301 318 c-1 -56 11 -61 36 -15 l18 32 3 -32 c5 -49 22 -40 22 12 0
32 -4 45 -14 45 -8 0 -17 -9 -21 -19 -3 -11 -13 -25 -22 -33 -14 -11 -16 -11
-11 2 3 8 2 24 -3 35 -5 14 -8 7 -8 -27z"/>
<path d="M1400 315 c0 -25 5 -45 10 -45 6 0 10 9 10 20 0 29 37 27 43 -2 2
-13 4 0 4 27 0 28 -2 40 -4 28 -6 -30 -43 -32 -43 -3 0 11 -4 20 -10 20 -5 0
-10 -20 -10 -45z"/>
<path d="M1503 315 c0 -27 2 -38 4 -22 2 15 2 37 0 50 -2 12 -4 0 -4 -28z"/>
<path d="M1704 333 c-4 -14 -2 -33 3 -42 22 -35 73 -19 73 23 0 50 -65 66 -76
19z m60 -5 c8 -14 7 -22 -7 -35 -16 -16 -18 -16 -33 -1 -10 10 -14 23 -9 37 8
25 33 24 49 -1z"/>
<path d="M1800 315 c0 -25 5 -45 10 -45 6 0 10 9 10 20 0 13 7 20 20 20 13 0
20 -7 20 -20 0 -11 5 -20 10 -20 6 0 10 20 10 45 0 25 -4 45 -10 45 -5 0 -10
-9 -10 -20 0 -13 -7 -20 -20 -20 -13 0 -20 7 -20 20 0 11 -4 20 -10 20 -5 0
-10 -20 -10 -45z"/>
<path d="M1910 326 c0 -19 -4 -38 -10 -41 -5 -3 -10 -16 -10 -28 1 -20 2 -21
14 -4 15 20 62 23 69 5 2 -7 8 -9 13 -5 4 4 3 17 -4 27 -7 11 -12 33 -12 50 0
27 -3 30 -30 30 -28 0 -30 -3 -30 -34z m50 -11 c0 -28 -4 -35 -20 -35 -21 0
-24 10 -14 48 10 36 34 27 34 -13z"/>
<path d="M2012 315 l-1 -50 28 35 29 35 5 -35 c3 -30 4 -28 5 13 2 54 -9 60
-35 16 l-18 -31 -6 34 c-6 29 -7 26 -7 -17z"/>
<path d="M2263 315 c0 -27 2 -40 4 -27 5 27 19 28 33 2 6 -11 15 -20 21 -20 5
0 2 11 -7 25 -16 24 -16 27 1 45 10 11 13 20 7 20 -7 0 -17 -9 -24 -20 -17
-26 -26 -25 -31 3 -2 12 -4 0 -4 -28z"/>
<path d="M2350 300 c0 -33 4 -60 9 -60 5 0 7 8 4 18 -3 14 2 18 23 17 33 0 49
23 40 58 -5 23 -12 27 -41 27 l-35 0 0 -60z m65 29 c5 -14 1 -27 -10 -38 -15
-15 -17 -15 -30 3 -10 13 -11 24 -4 37 13 25 36 24 44 -2z"/>
<path d="M2456 351 c-4 -6 4 -9 18 -8 32 3 35 -16 4 -23 -14 -4 -23 -13 -23
-25 0 -16 7 -20 33 -21 33 -1 33 0 30 40 -3 36 -6 41 -30 44 -14 2 -29 -1 -32
-7z m54 -50 c0 -6 -5 -13 -10 -16 -15 -9 -43 3 -35 15 8 13 45 13 45 1z"/>
<path d="M2553 315 c0 -27 2 -38 4 -22 2 15 2 37 0 50 -2 12 -4 0 -4 -28z"/>
<path d="M2593 315 c0 -27 2 -40 4 -27 3 15 11 22 28 22 17 0 25 -7 28 -22 2
-13 5 0 5 27 1 39 -1 45 -8 28 -5 -13 -18 -23 -29 -23 -12 0 -21 8 -24 23 -2
12 -4 0 -4 -28z"/>
<path d="M2691 318 c0 -27 3 -48 7 -48 4 0 16 15 27 33 l20 32 6 -35 c6 -33 6
-32 8 13 1 55 -11 60 -36 15 l-17 -33 -7 35 c-6 33 -6 33 -8 -12z"/>
</g>
</svg>
